<svg xmlns="http://www.w3.org/2000/svg" xmlns:xlink="http://www.w3.org/1999/xlink" viewBox="0 0 800 40" width="100%">
  <a href="https://discordapp.com/users/178370555072872449/"><g>
    <rect x="190" y="4" width="97" height="32" rx="16" fill="none" stroke="white" stroke-width="1"/>
    <svg x="202" y="12" width="16" height="16" viewBox="0 0 24 24" fill="white" ><path d="M20.317 4.3698a19.7913 19.7913 0 00-4.8851-1.5152.0741.0741 0 00-.0785.0371c-.211.3753-.4447.8648-.6083 1.2495-1.8447-.2762-3.68-.2762-5.4868 0-.1636-.3933-.4058-.8742-.6177-1.2495a.077.077 0 00-.0785-.037 19.7363 19.7363 0 00-4.8852 1.515.0699.0699 0 00-.0321.0277C.5334 9.0458-.319 13.5799.0992 18.0578a.0824.0824 0 00.0312.0561c2.0528 1.5076 4.0413 2.4228 5.9929 3.0294a.0777.0777 0 00.0842-.0276c.4616-.6304.8731-1.2952 1.226-1.9942a.076.076 0 00-.0416-.1057c-.6528-.2476-1.2743-.5495-1.8722-.8923a.077.077 0 01-.0076-.1277c.1258-.0943.2517-.1923.3718-.2914a.0743.0743 0 01.0776-.0105c3.9278 1.7933 8.18 1.7933 12.0614 0a.0739.0739 0 01.0785.0095c.1202.099.246.1981.3728.2924a.077.077 0 01-.0066.1276 12.2986 12.2986 0 01-1.873.8914.0766.0766 0 00-.0407.1067c.3604.698.7719 1.3628 1.225 1.9932a.076.076 0 00.0842.0286c1.961-.6067 3.9495-1.5219 6.0023-3.0294a.077.077 0 00.0313-.0552c.5004-5.177-.8382-9.6739-3.5485-13.6604a.061.061 0 00-.0312-.0286zM8.02 15.3312c-1.1825 0-2.1569-1.0857-2.1569-2.419 0-1.3332.9555-2.4189 2.157-2.4189 1.2108 0 2.1757 1.0952 2.1568 2.419 0 1.3332-.9555 2.4189-2.1569 2.4189zm7.9748 0c-1.1825 0-2.1569-1.0857-2.1569-2.419 0-1.3332.9554-2.4189 2.1569-2.4189 1.2108 0 2.1757 1.0952 2.1568 2.419 0 1.3332-.946 2.4189-2.1568 2.4189Z"/></svg>
    <text x="224" y="21" fill="white" font-family="-apple-system,BlinkMacSystemFont,'Segoe UI',Helvetica,Arial,sans-serif" font-size="13" dominant-baseline="middle">Discord</text>
  </g></a>
  <a href="https://steamcommunity.com/id/opsedar/"><g>
    <rect x="297" y="4" width="86" height="32" rx="16" fill="none" stroke="white" stroke-width="1"/>
    <svg x="309" y="12" width="16" height="16" viewBox="0 0 24 24" fill="white" ><path d="M11.979 0C5.678 0 .511 4.86.022 11.037l6.432 2.658c.545-.371 1.203-.59 1.912-.59.063 0 .125.004.188.006l2.861-4.142V8.91c0-2.495 2.028-4.524 4.524-4.524 2.494 0 4.524 2.031 4.524 4.527s-2.03 4.525-4.524 4.525h-.105l-4.076 2.911c0 .052.004.105.004.159 0 1.875-1.515 3.396-3.39 3.396-1.635 0-3.016-1.173-3.331-2.727L.436 15.27C1.862 20.307 6.486 24 11.979 24c6.627 0 11.999-5.373 11.999-12S18.605 0 11.979 0zM7.54 18.21l-1.473-.61c.262.543.714.999 1.314 1.25 1.297.539 2.793-.076 3.332-1.375.263-.63.264-1.319.005-1.949s-.75-1.121-1.377-1.383c-.624-.26-1.29-.249-1.878-.03l1.523.63c.956.4 1.409 1.5 1.009 2.455-.397.957-1.497 1.41-2.454 1.012H7.54zm11.415-9.303c0-1.662-1.353-3.015-3.015-3.015-1.665 0-3.015 1.353-3.015 3.015 0 1.665 1.35 3.015 3.015 3.015 1.663 0 3.015-1.35 3.015-3.015zm-5.273-.005c0-1.252 1.013-2.266 2.265-2.266 1.249 0 2.266 1.014 2.266 2.266 0 1.251-1.017 2.265-2.266 2.265-1.253 0-2.265-1.014-2.265-2.265z"/></svg>
    <text x="331" y="21" fill="white" font-family="-apple-system,BlinkMacSystemFont,'Segoe UI',Helvetica,Arial,sans-serif" font-size="13" dominant-baseline="middle">Steam</text>
  </g></a>
  <a href="https://www.nexusmods.com/users/16167329/?tab=user+files"><g>
    <rect x="393" y="4" width="115" height="32" rx="16" fill="none" stroke="white" stroke-width="1"/>
    <svg x="405" y="12" width="16" height="16" viewBox="0 0 24 24" fill="white" ><path d="M17.376 0c-.993 0-2.18.686-2.907 1.182-1.676-.36-4.036-.545-6.787.635-1.365-.513-2.425-.562-3.32-.488a2.16 2.16 0 0 0-1.27.429c-.33.22-2.788 2.69-3.069 4.652C-.15 7.508.68 8.932 1.218 9.718c-.44 1.76-.2 4.572.517 6.188-.353 1.041-.713 2.089-.664 3.205.01.584.061 1.188.398 1.684C1.72 21.19 4.528 24 6.545 24c.957 0 1.93-.428 3.07-1.24 2.16.383 4.402.348 6.448-.532 2.573 1.001 4.224.625 4.84.162.587-.457 2.826-2.915 3.07-4.622.1-.672-.023-1.638-1.226-3.397a10.983 10.983 0 0 0-.501-6.455c.396-1.069.673-2.188.59-3.337-.015-.68-.221-1.167-.487-1.507-.209-.335-2.415-2.39-4.028-2.91A3.105 3.105 0 0 0 17.376 0m-.03 2.082c.65.015 2.155 1.093 3.01 1.906l.355.34c-.959-.163-2.125.428-3.26 1.55a10.28 10.28 0 0 0-1.358 1.595c-.28.384-.517.768-.753 1.285l1.18.635-3.895 1.477-1.122-4.18 1.033.547c1.358-3.102 2.524-3.973 3.232-4.416h.015a5.12 5.12 0 0 1 1.49-.724zM12 3.065a8.932 8.932 0 0 1 2.22.279 7.67 7.67 0 0 0-.42.488 8.403 8.403 0 0 0-1.8-.196 8.336 8.336 0 0 0-5.897 2.432 7.86 7.86 0 0 1-.37-.433A8.905 8.905 0 0 1 12 3.065m-7.076.305c.71-.002 1.309.127 2.2.466a9.526 9.526 0 0 0-1.713 1.337c-.327-.542-.624-1.156-.488-1.803m-.606.042c-.162.96.428 2.126 1.55 3.264.457.487 1.003.945 1.594 1.358.383.281.767.517 1.283.754l.62-1.182 1.49 3.914-4.176 1.122.546-1.033c-3.099-1.36-3.969-2.526-4.412-3.235v-.015a5.144 5.144 0 0 1-.723-1.491l-.015-.074c.015-.65 1.092-2.156 1.904-3.013Zm16.035 1.483a1.259 1.259 0 0 1 .26.015l.14.023a5.05 5.05 0 0 1-.13 1.137v.015c-.1.383-.228.765-.377 1.148a9.526 9.526 0 0 0-1.346-1.776c.547-.357 1.051-.546 1.453-.562M18.43 5.8a8.903 8.903 0 0 1 2.506 6.2 8.937 8.937 0 0 1-.27 2.183 7.658 7.658 0 0 0-.488-.425A8.407 8.407 0 0 0 20.364 12 8.334 8.334 0 0 0 18 6.173a7.904 7.904 0 0 1 .429-.373M3.315 9.905c.157.148.319.29.488.425A8.417 8.417 0 0 0 3.636 12c0 2.248.887 4.286 2.327 5.788a8.11 8.11 0 0 1-.426.376A8.902 8.902 0 0 1 3.065 12a8.937 8.937 0 0 1 .25-2.095m13.988 1.541-.546 1.034c3.098 1.359 3.969 2.526 4.412 3.235v.014c.34.488.575.99.723 1.492l.014.074c-.014.65-1.092 2.156-1.903 3.013l-.34.354c.163-.96-.427-2.127-1.549-3.264a10.298 10.298 0 0 0-1.594-1.359 7.008 7.008 0 0 0-1.283-.753l-.605 1.152-1.505-3.87zm-6.006 1.684 1.121 4.18-1.033-.547c-1.357 3.102-2.523 3.973-3.231 4.416h-.015c-.487.34-.989.576-1.49.724l-.074.015c-.65-.015-2.154-1.093-3.01-1.906l-.354-.34c.959.163 2.124-.428 3.26-1.55.488-.458.945-1.004 1.358-1.595.28-.384.517-.768.753-1.285l-1.166-.635ZM3.72 16.663A9.526 9.526 0 0 0 5.086 18.5c-.697.47-1.33.665-1.777.59l-.138-.024c0-.367.038-.748.128-1.137v-.015c.11-.417.254-.835.42-1.252m14.131 1.314c.129.14.253.283.372.43A8.904 8.904 0 0 1 12 20.936a8.932 8.932 0 0 1-2.282-.296 7.757 7.757 0 0 0 .417-.487 8.335 8.335 0 0 0 7.716-2.175m.696.889c.43.666.607 1.267.534 1.698l-.023.138a5.034 5.034 0 0 1-1.136-.128h-.014a10.718 10.718 0 0 1-1.114-.366 9.526 9.526 0 0 0 1.753-1.342"/></svg>
    <text x="427" y="21" fill="white" font-family="-apple-system,BlinkMacSystemFont,'Segoe UI',Helvetica,Arial,sans-serif" font-size="13" dominant-baseline="middle">NexusMods</text>
  </g></a>
  <a href="https://github.com/opariffazman"><g>
    <rect x="518" y="4" width="91" height="32" rx="16" fill="none" stroke="white" stroke-width="1"/>
    <svg x="530" y="12" width="16" height="16" viewBox="0 0 24 24" fill="white" ><path d="M12 .297c-6.63 0-12 5.373-12 12 0 5.303 3.438 9.8 8.205 11.385.6.113.82-.258.82-.577 0-.285-.01-1.04-.015-2.04-3.338.724-4.042-1.61-4.042-1.61C4.422 18.07 3.633 17.7 3.633 17.7c-1.087-.744.084-.729.084-.729 1.205.084 1.838 1.236 1.838 1.236 1.07 1.835 2.809 1.305 3.495.998.108-.776.417-1.305.76-1.605-2.665-.3-5.466-1.332-5.466-5.93 0-1.31.465-2.38 1.235-3.22-.135-.303-.54-1.523.105-3.176 0 0 1.005-.322 3.3 1.23.96-.267 1.98-.399 3-.405 1.02.006 2.04.138 3 .405 2.28-1.552 3.285-1.23 3.285-1.23.645 1.653.24 2.873.12 3.176.765.84 1.23 1.91 1.23 3.22 0 4.61-2.805 5.625-5.475 5.92.42.36.81 1.096.81 2.22 0 1.606-.015 2.896-.015 3.286 0 .315.21.69.825.57C20.565 22.092 24 17.592 24 12.297c0-6.627-5.373-12-12-12"/></svg>
    <text x="552" y="21" fill="white" font-family="-apple-system,BlinkMacSystemFont,'Segoe UI',Helvetica,Arial,sans-serif" font-size="13" dominant-baseline="middle">GitHub</text>
  </g></a>
</svg>